<?xml version="1.0" encoding="utf-8"?>
<!-- Generator: Adobe Illustrator 26.0.2, SVG Export Plug-In . SVG Version: 6.00 Build 0)  -->
<svg version="1.1" id="Layer_1" xmlns="http://www.w3.org/2000/svg" xmlns:xlink="http://www.w3.org/1999/xlink" x="0px" y="0px"
	 viewBox="0 0 1920 3279" style="enable-background:new 0 0 1920 3279;" xml:space="preserve">
<style type="text/css">
	.st0{clip-path:url(#SVGID_00000114789126049072453440000003171471187428500615_);}
	.st1{fill:#32A582;}
</style>
<g>
	<defs>
		<rect id="SVGID_1_" y="0" width="1920" height="3279"/>
	</defs>
	<clipPath id="SVGID_00000170247397385338541480000000882693981392162703_">
		<use xlink:href="#SVGID_1_"  style="overflow:visible;"/>
	</clipPath>
	<g style="clip-path:url(#SVGID_00000170247397385338541480000000882693981392162703_);">
		<path class="st1" d="M-71-29.5v468c0,0-18.7,224.6,243.4,0c262.1-224.6,636.5-405.6,867.3-312s411.8,143.5,611.5,127.9
			s330.7-209,449.3-40.6c118.6,168.5,0-418.1,0-418.1l-536.6-56.2H921.1H290.9L-71-29.5z"/>
		<path class="st1" d="M1582.5,1898.6c0,0-87.4,474.2-443,549.1c-355.7,74.9-156,511.7,149.8,399.4
			c305.8-112.3,630.2-511.7,561.6-761.3S1582.5,1898.6,1582.5,1898.6z"/>
		<path class="st1" d="M-619.1,1335.4c0,0,698.9-773.7,911-349.4c212.1,424.3,867.3,873.6,56.2,1110.7s-1503.8,524.1-1129.4,124.8
			S-619.1,1335.4-619.1,1335.4z"/>
		<path class="st1" d="M1601.3,1081.2c0,0-349.4,143.5-143.5,274.6s411.8,87.4,280.8,0c-131-87.4-212.2-212.2-56.2-193.4
			C1838.4,1181,1601.3,1081.2,1601.3,1081.2z"/>
	</g>
</g>
</svg>
