<svg width="1920" height="3279" viewBox="0 0 1920 3279" fill="none" xmlns="http://www.w3.org/2000/svg">
<g clip-path="url(#clip0_36_11)">
<path d="M-311.4 -156.1V618.8C-311.4 618.8 -379 1132.4 71.5001 1172.9C522 1213.4 472.4 992.7 990.5 938.6C1508.6 884.5 1459 1555.8 1607.7 1650.4C1756.4 1745 2080.7 1506.2 2080.7 1506.2L2103.2 244.8L1832.9 -237.2L1179.7 -259.7L-311.4 -156.1Z" fill="#FF732D"/>
<path d="M-406 2713.6C-406 2713.6 -685.3 3191.1 -406 3245.2C-126.7 3299.3 -216.8 3254.2 26.4999 3245.2C269.8 3236.2 756.3 3236.2 404.9 3083C53.4999 2929.8 -72.6001 2920.8 98.5999 2785.7C269.8 2650.6 -541.1 2227.1 -577.1 2425.3C-613.3 2623.5 -406 2713.6 -406 2713.6Z" fill="#FF732D"/>
<path d="M1963 1938.8C1584.6 1992.9 1143.1 1884.7 1350.3 2200.1C1557.5 2515.5 1575.5 2740.7 1701.7 2452.4C1827.9 2164.1 1872.9 2164 1963 2137" fill="#FF732D"/>
</g>
<defs>
<clipPath id="clip0_36_11">
<rect width="1920" height="3279" fill="white"/>
</clipPath>
</defs>
</svg>
