<svg width="1922" height="7406" viewBox="0 0 1922 7406" fill="none" xmlns="http://www.w3.org/2000/svg">
<g clip-path="url(#clip0_32_6)">
<path d="M0.600006 -1.5C0.600006 -1.5 138.1 720 507.1 639C876.1 558 1000.1 340 1248.1 441C1496.1 542 1920.6 -1.5 1920.6 -1.5H0.600006Z" fill="#AA73FF" stroke="white" stroke-miterlimit="10"/>
<path d="M1822.1 1895C1822.1 1895 1131.1 2018 1249.1 2459C1367.1 2900 1650.1 3071.2 1774.6 2877.6C1899.1 2684 1510.5 2697.5 1528.8 2571.3C1547.1 2445.1 1692.1 2170.1 1858.1 2188.1C2024.1 2206.1 1822.1 1895 1822.1 1895Z" fill="#AA73FF" stroke="white" stroke-miterlimit="10"/>
<path d="M18.1 3009C18.1 3009 622.1 2774 590.1 3243C558.1 3712 472.1 4274 360.1 3851C248.1 3428 197.9 3409.8 90 3625.9C-17.9 3842 18.1 3009 18.1 3009Z" fill="#AA73FF" stroke="white" stroke-miterlimit="10"/>
<path d="M1314.1 6576.4C1314.1 6576.4 485.9 5971.5 611.5 6533.6C737.1 7095.7 991.5 7483.7 973.2 7088.7C955 6693.7 1277.8 6871.2 1327.5 6864.3C1377.2 6857.5 2170.7 6442.2 1749.1 6047.1C1327.5 5652.1 725.1 5609.3 1002.8 5969.8C1280.4 6330.4 1654.2 6871.6 1314.1 6576.4Z" fill="#AA73FF" stroke="white" stroke-miterlimit="10"/>
</g>
<defs>
<clipPath id="clip0_32_6">
<rect width="1921.6" height="7405.8" fill="white"/>
</clipPath>
</defs>
</svg>
