<svg width="1920" height="3279" viewBox="0 0 1920 3279" fill="none" xmlns="http://www.w3.org/2000/svg">
<g clip-path="url(#clip0_32_2)">
<path d="M0 0C0 0 84.5 313.5 388.5 201.5C692.5 89.5 1597.5 700.5 1952.5 626.5C2307.5 552.5 1935.5 -31.5 1935.5 -31.5L-14.5 -119.5L0 0Z" fill="#BEFAAA"/>
<path d="M128 1032C128 1032 418 698 577 1012C736 1326 631 1928 442 1779C253 1630 713 1513 527 1438C341 1363 34 1455 162 1617C290 1779 -196 1488 128 1032Z" fill="#BEFAAA"/>
<path d="M1456 2124C1456 2124 976 2491 1172 2674C1368 2857 1548 2925 1527 3060C1506 3195 2345 1651 1456 2124Z" fill="#BEFAAA"/>
</g>
<defs>
<clipPath id="clip0_32_2">
<rect width="1920" height="3279" fill="white"/>
</clipPath>
</defs>
</svg>
