<svg width="1920" height="3279" viewBox="0 0 1920 3279" fill="none" xmlns="http://www.w3.org/2000/svg">
<g clip-path="url(#clip0_36_15)">
<path d="M-158.4 -35.7L-89.7999 476L9.15527e-05 1692.7C9.15527e-05 1692.7 680.6 2135.7 960 1156.1C1239.4 176.5 1920 182.7 1920 182.7L2063 170.2L2038 -66.9L1738.5 -173H908.6L-158.4 -35.7Z" fill="#C4E7E9"/>
<path d="M1414.1 2060.9C1414.1 2060.9 1489 2304.3 1095.9 2335.5C702.8 2366.7 434.4 2610 821.3 2709.8C821.3 2709.8 1613.8 2922 1676.2 2454C1738.6 1986 1414.1 2060.9 1414.1 2060.9Z" fill="#C4E7E9"/>
<path d="M122.4 2815.9C122.4 2815.9 559.2 2728.5 471.8 2934.5C384.4 3140.5 334.6 3152.8 191.1 3184C47.5999 3215.2 -339.3 3692.2 -239.5 3279C-139.7 2865.8 122.4 2815.9 122.4 2815.9Z" fill="#C4E7E9"/>
<path d="M2125.4 900.2C2125.4 900.2 1688.6 669.3 1751 1193.5C1813.4 1717.7 2032.1 2684.8 1744.9 2884.5C1457.7 3084.2 1526.4 3483.5 1850.8 3502.2C2175.2 3520.9 2125.4 900.2 2125.4 900.2Z" fill="#C4E7E9"/>
</g>
<defs>
<clipPath id="clip0_36_15">
<rect width="1920" height="3279" fill="white"/>
</clipPath>
</defs>
</svg>
