<svg width="1920" height="3279" viewBox="0 0 1920 3279" fill="none" xmlns="http://www.w3.org/2000/svg">
<g clip-path="url(#clip0_36_29)">
<path d="M-71.0004 -29.5V438.5C-71.0004 438.5 -89.7004 663.1 172.4 438.5C434.5 213.9 808.9 32.9 1039.7 126.5C1270.5 220.1 1451.5 270 1651.2 254.4C1850.9 238.8 1981.9 45.4 2100.5 213.8C2219.1 382.3 2100.5 -204.3 2100.5 -204.3L1563.9 -260.5H921.1H290.9L-71.0004 -29.5Z" fill="#32A582"/>
<path d="M1582.5 1898.6C1582.5 1898.6 1495.1 2372.8 1139.5 2447.7C783.8 2522.6 983.5 2959.4 1289.3 2847.1C1595.1 2734.8 1919.5 2335.4 1850.9 2085.8C1782.3 1836.2 1582.5 1898.6 1582.5 1898.6Z" fill="#32A582"/>
<path d="M-619.1 1335.4C-619.1 1335.4 79.8003 561.7 291.9 986C504 1410.3 1159.2 1859.6 348.1 2096.7C-463 2333.8 -1155.7 2620.8 -781.3 2221.5C-406.9 1822.2 -619.1 1335.4 -619.1 1335.4Z" fill="#32A582"/>
<path d="M1601.3 1081.2C1601.3 1081.2 1251.9 1224.7 1457.8 1355.8C1663.7 1486.9 1869.6 1443.2 1738.6 1355.8C1607.6 1268.4 1526.4 1143.6 1682.4 1162.4C1838.4 1181 1601.3 1081.2 1601.3 1081.2Z" fill="#32A582"/>
</g>
<defs>
<clipPath id="clip0_36_29">
<rect width="1920" height="3279" fill="white"/>
</clipPath>
</defs>
</svg>
