<?xml version="1.0" encoding="utf-8"?>
<!-- Generator: Adobe Illustrator 26.0.2, SVG Export Plug-In . SVG Version: 6.00 Build 0)  -->
<svg version="1.1" id="Layer_1" xmlns="http://www.w3.org/2000/svg" xmlns:xlink="http://www.w3.org/1999/xlink" x="0px" y="0px"
	 viewBox="0 0 1920 3279" style="enable-background:new 0 0 1920 3279;" xml:space="preserve">
<style type="text/css">
	.st0{clip-path:url(#SVGID_00000050652255021826333020000000322872476360343441_);}
	.st1{fill:#BEFAAA;}
</style>
<g>
	<defs>
		<rect id="SVGID_1_" width="1920" height="3279"/>
	</defs>
	<clipPath id="SVGID_00000078025913125038482260000013072746580072329380_">
		<use xlink:href="#SVGID_1_"  style="overflow:visible;"/>
	</clipPath>
	<g style="clip-path:url(#SVGID_00000078025913125038482260000013072746580072329380_);">
		<path class="st1" d="M0,0c0,0,84.5,313.5,388.5,201.5s1209,499,1564,425s-17-658-17-658l-1950-88L0,0z"/>
		<path class="st1" d="M128,1032c0,0,290-334,449-20s54,916-135,767s271-266,85-341s-493,17-365,179S-196,1488,128,1032z"/>
		<path class="st1" d="M1456,2124c0,0-480,367-284,550s376,251,355,386S2345,1651,1456,2124z"/>
	</g>
</g>
</svg>
