<?xml version="1.0" encoding="utf-8"?>
<!-- Generator: Adobe Illustrator 26.0.2, SVG Export Plug-In . SVG Version: 6.00 Build 0)  -->
<svg version="1.1" id="Layer_1" xmlns="http://www.w3.org/2000/svg" xmlns:xlink="http://www.w3.org/1999/xlink" x="0px" y="0px"
	 viewBox="0 0 1921.6 7405.8" style="enable-background:new 0 0 1921.6 7405.8;" xml:space="preserve">
<style type="text/css">
	.st0{fill:#AA73FF;stroke:#FFFFFF;stroke-miterlimit:10;}
</style>
<path class="st0" d="M0.6-1.5c0,0,137.5,721.5,506.5,640.5s493-299,741-198S1920.6-1.5,1920.6-1.5H0.6z"/>
<path class="st0" d="M1822.1,1895c0,0-691,123-573,564s401,612.2,525.5,418.6c124.5-193.6-264.1-180.1-245.8-306.3
	c18.3-126.2,163.3-401.2,329.3-383.2S1822.1,1895,1822.1,1895z"/>
<path class="st0" d="M18.1,3009c0,0,604-235,572,234s-118,1031-230,608S197.9,3409.8,90,3625.9S18.1,3009,18.1,3009z"/>
<path class="st0" d="M1314.1,6576.4c0,0-828.2-604.9-702.6-42.8s380,950.1,361.7,555.1c-18.2-395,304.6-217.5,354.3-224.4
	c49.7-6.8,843.2-422.1,421.6-817.2c-421.6-395-1024-437.8-746.3-77.3C1280.4,6330.4,1654.2,6871.6,1314.1,6576.4z"/>
</svg>
