<svg width="587" height="391" viewBox="0 0 587 391" fill="none" xmlns="http://www.w3.org/2000/svg">
<g clip-path="url(#clip0_20_47)">
<path d="M587 0H0V391H587V0Z" fill="#F5A9CA"/>
<path d="M195.032 -35.4335C195.032 -35.4335 -78.9381 -223.819 257.365 15.049C596.663 255.97 93.9091 454.89 215.583 470.212C-23.137 439.978 -144.947 357.892 -46.8185 350.231C51.4459 342.707 184.28 356.524 184.28 290.582C184.28 192.353 7.21331 66.0788 -72.6775 99.0497C-152.704 131.884 -1.361 -59.6487 195.032 -35.4335Z" fill="#F36E21"/>
<path d="M587 0H0V391H587V0Z" stroke="black" stroke-width="9.205"/>
<path d="M428.988 106.985L441.509 143.786H441.645L453.486 106.985H469.954V160.614H458.93V122.581H458.658L445.592 160.477H436.609L423.544 122.854H423.408V160.477H412.384V106.985H428.988ZM387.885 106.985L407.756 160.614H395.643L391.56 148.711H371.69L367.47 160.614H355.63L375.773 106.985H387.885ZM388.566 139.819L381.897 120.118H381.761L374.82 139.819H388.566ZM336.167 106.985C338.617 106.985 340.659 107.395 342.564 108.216C344.47 109.037 346.103 109.994 347.464 111.362C348.825 112.731 349.914 114.235 350.594 116.014C351.275 117.793 351.683 119.708 351.683 121.76C351.683 124.907 351.002 127.643 349.641 129.969C348.28 132.294 346.239 134.073 343.245 135.167V135.304C344.742 135.714 345.831 136.262 346.783 137.083C347.736 137.903 348.553 138.861 349.097 139.956C349.641 141.05 350.186 142.281 350.458 143.649C350.73 145.018 350.866 146.386 351.002 147.754C351.002 148.575 351.138 149.669 351.138 150.763C351.138 151.858 351.275 153.089 351.411 154.321C351.547 155.552 351.683 156.646 351.955 157.741C352.227 158.835 352.636 159.793 353.18 160.477H341.611C340.931 158.835 340.523 156.783 340.387 154.457C340.25 152.132 339.978 149.806 339.706 147.754C339.298 145.018 338.481 142.965 337.12 141.597C335.759 140.366 333.718 139.682 330.723 139.682H319.019V160.614H307.314V106.985H336.167ZM331.948 131.2C334.67 131.2 336.712 130.653 337.937 129.421C339.298 128.19 339.978 126.275 339.978 123.538C339.978 120.939 339.298 119.024 337.937 117.929C336.576 116.698 334.534 116.151 331.948 116.151H319.155V131.2H331.948ZM282.408 160.066C279.822 161.161 277.372 161.708 274.786 161.708C270.703 161.708 267.029 161.024 263.762 159.519C260.496 158.151 257.774 156.099 255.46 153.636C253.282 151.174 251.513 148.164 250.288 144.881C249.063 141.46 248.519 137.903 248.519 133.936C248.519 129.969 249.063 126.275 250.288 122.854C251.513 119.434 253.146 116.424 255.46 113.825C257.638 111.226 260.496 109.31 263.762 107.805C267.029 106.301 270.703 105.617 274.786 105.617C277.508 105.617 280.23 106.027 282.68 106.848C285.266 107.669 287.58 108.9 289.621 110.542C291.663 112.183 293.432 114.099 294.793 116.424C296.154 118.75 296.971 121.486 297.243 124.496H286.083C285.402 121.486 284.041 119.297 282 117.793C279.958 116.288 277.644 115.604 274.786 115.604C272.2 115.604 269.887 116.151 268.117 117.108C266.212 118.066 264.851 119.571 263.626 121.213C262.537 122.991 261.585 124.907 261.176 127.096C260.632 129.284 260.36 131.61 260.36 133.936C260.36 136.125 260.632 138.314 261.176 140.503C261.721 142.692 262.537 144.607 263.626 146.249C264.715 147.89 266.212 149.259 268.117 150.353C270.023 151.311 272.2 151.858 274.786 151.858C278.733 151.858 281.727 150.9 283.769 148.848C285.946 146.933 287.171 144.06 287.444 140.229H275.603V131.473H298.059V160.477H290.574L289.349 154.457C287.171 157.057 284.858 158.972 282.408 160.066ZM192.173 122.854C193.398 119.434 195.032 116.424 197.345 113.825C199.523 111.226 202.381 109.31 205.647 107.805C208.914 106.301 212.588 105.617 216.671 105.617C220.754 105.617 224.429 106.301 227.696 107.805C230.962 109.31 233.684 111.226 235.862 113.825C238.039 116.424 239.809 119.297 241.033 122.854C242.258 126.275 242.803 129.969 242.803 133.936C242.803 137.903 242.258 141.46 241.033 144.881C239.809 148.301 238.175 151.174 235.862 153.636C233.684 156.099 230.826 158.151 227.696 159.519C224.429 160.887 220.754 161.708 216.671 161.708C212.588 161.708 208.914 161.024 205.647 159.519C202.381 158.151 199.659 156.099 197.345 153.636C195.168 151.174 193.398 148.164 192.173 144.881C190.949 141.46 190.404 137.903 190.404 133.936C190.404 129.969 190.949 126.275 192.173 122.854ZM202.925 140.503C203.47 142.692 204.286 144.607 205.375 146.249C206.464 147.89 207.961 149.259 209.866 150.353C211.772 151.311 213.949 151.858 216.535 151.858C219.121 151.858 221.435 151.311 223.204 150.353C225.11 149.395 226.471 148.027 227.696 146.249C228.784 144.607 229.737 142.692 230.145 140.503C230.69 138.314 230.962 136.125 230.962 133.936C230.962 131.61 230.69 129.284 230.145 127.096C229.601 124.907 228.784 122.991 227.696 121.213C226.607 119.434 225.11 118.066 223.204 117.108C221.299 116.151 219.121 115.604 216.535 115.604C213.949 115.604 211.636 116.151 209.866 117.108C207.961 118.066 206.6 119.571 205.375 121.213C204.286 122.991 203.334 124.907 202.925 127.096C202.381 129.284 202.109 131.61 202.109 133.936C202.109 136.125 202.381 138.314 202.925 140.503ZM167.539 106.985C169.989 106.985 172.031 107.395 173.936 108.216C175.841 109.037 177.475 109.994 178.836 111.362C180.197 112.731 181.285 114.235 181.966 116.014C182.646 117.793 183.055 119.708 183.055 121.76C183.055 124.907 182.374 127.643 181.013 129.969C179.652 132.294 177.611 134.073 174.617 135.167V135.304C176.114 135.714 177.202 136.262 178.155 137.083C179.108 137.903 179.924 138.861 180.469 139.956C181.013 141.05 181.558 142.281 181.83 143.649C182.102 145.018 182.238 146.386 182.374 147.754C182.374 148.575 182.51 149.669 182.51 150.763C182.51 151.858 182.646 153.089 182.783 154.321C182.919 155.552 183.055 156.646 183.327 157.741C183.599 158.835 184.007 159.793 184.552 160.477H172.847C172.167 158.835 171.758 156.783 171.622 154.457C171.486 152.132 171.214 149.806 170.942 147.754C170.534 145.018 169.717 142.965 168.356 141.597C166.995 140.366 164.953 139.682 161.959 139.682H150.255V160.614H138.822V106.985H167.539ZM163.456 131.2C166.178 131.2 168.22 130.653 169.445 129.421C170.806 128.19 171.486 126.275 171.486 123.538C171.486 120.939 170.806 119.024 169.445 117.929C168.084 116.698 166.042 116.151 163.456 116.151H150.663V131.2H163.456ZM113.099 106.985C116.366 106.985 119.224 107.532 121.674 108.49C123.987 109.447 125.893 110.815 127.39 112.32C128.887 113.962 129.976 115.74 130.656 117.793C131.337 119.845 131.609 122.034 131.609 124.223C131.609 126.411 131.337 128.464 130.656 130.516C129.976 132.568 128.887 134.483 127.39 135.988C125.893 137.63 123.987 138.861 121.674 139.819C119.36 140.776 116.502 141.324 113.099 141.324H100.85V160.477H89.1456V106.985H113.099ZM109.833 132.157C111.194 132.157 112.419 132.021 113.78 131.884C115.005 131.747 116.093 131.337 117.046 130.653C117.999 130.105 118.815 129.284 119.36 128.19C119.904 127.096 120.176 125.727 120.176 124.086C120.176 122.444 119.904 121.076 119.36 119.981C118.815 118.887 117.999 118.066 117.046 117.519C116.093 116.972 115.005 116.561 113.78 116.424C112.555 116.288 111.194 116.151 109.833 116.151H100.714V132.157H109.833Z" fill="black"/>
<path d="M390.063 41.4531V51.3034H361.89V62.9321H387.749V72.0983H361.89V85.232H390.607V95.0822H350.186V41.4531H390.063ZM314.664 95.0822L297.379 41.4531H309.356L321.196 79.0756H321.333L333.309 41.4531H345.422L327.729 95.0822H314.664ZM292.888 95.0822H281.183V41.4531H292.888V95.0822ZM231.37 51.4402V41.5899H275.058V51.4402H259.135V95.0822H247.43V51.4402H231.37ZM217.896 41.4531L237.767 95.0822H225.654L221.571 83.1798H201.7L197.481 95.0822H185.641L205.783 41.4531H217.896ZM218.577 74.2873L211.772 54.7236H211.636L204.695 74.4241H218.577V74.2873ZM182.783 41.4531V51.3034H154.61V62.9321H180.469V72.0983H154.61V85.232H183.327V95.0822H142.905V41.4531H182.783ZM117.727 41.4531C120.176 41.4531 122.218 41.8635 124.123 42.5476C126.029 43.3684 127.662 44.3261 129.023 45.6942C130.384 47.0623 131.473 48.5672 132.153 50.3457C132.834 52.1242 133.242 54.0395 133.242 56.0917C133.242 59.2383 132.562 61.9745 131.201 64.3002C129.84 66.626 127.662 68.4045 124.804 69.4989V69.6358C126.301 70.0462 127.39 70.5934 128.342 71.4143C129.295 72.2351 130.112 73.1928 130.656 74.2873C131.201 75.3817 131.745 76.613 132.017 77.9811C132.289 79.3492 132.425 80.7173 132.562 82.0854C132.562 82.9062 132.698 84.0007 132.698 85.0952C132.698 86.1896 132.834 87.4209 132.97 88.6522C133.106 89.8835 133.242 90.978 133.514 92.0724C133.786 93.1669 134.195 94.1246 134.739 94.8086H123.035C122.354 93.1669 121.946 91.1148 121.81 88.789C121.674 86.4633 121.401 84.1375 121.129 82.0854C120.721 79.3492 119.904 77.2971 118.543 75.929C117.182 74.5609 115.141 74.0136 112.147 74.0136H100.714V94.9454H89.0095V41.4531H117.727ZM113.644 65.6683C116.366 65.6683 118.407 65.1211 119.632 63.8898C120.993 62.6585 121.674 60.7432 121.674 58.007C121.674 55.4076 120.993 53.4923 119.632 52.3978C118.271 51.1665 116.23 50.6193 113.644 50.6193H100.714V65.6683H113.644ZM67.914 55.8181C67.2335 54.7236 66.2808 53.7659 65.3281 52.8083C64.2393 51.9874 63.1505 51.3034 61.7895 50.7561C60.4285 50.3457 59.0675 50.0721 57.7065 50.0721C55.1206 50.0721 52.8069 50.6193 51.0376 51.577C49.1322 52.5346 47.7712 54.0395 46.5463 55.6812C45.4575 57.4598 44.5048 59.3751 44.0965 61.564C43.5521 63.753 43.2799 66.0787 43.2799 68.4045C43.2799 70.5934 43.5521 72.7824 44.0965 74.9713C44.6409 77.1603 45.4575 79.0756 46.5463 80.7173C47.6351 82.359 49.1322 83.7271 51.0376 84.8216C52.943 85.7792 55.1206 86.3265 57.7065 86.3265C61.2451 86.3265 64.1032 85.232 66.1447 83.043C68.1862 80.8541 69.4111 77.9811 69.8194 74.2873H81.1157C80.8435 77.5707 80.0269 80.7173 78.802 83.3167C77.5771 86.0528 75.9439 88.3786 73.9024 90.1571C71.8609 92.0724 69.4111 93.4405 66.6891 94.535C63.9671 95.4927 60.9729 96.0399 57.7065 96.0399C53.6235 96.0399 49.9488 95.3558 46.6824 93.8509C43.416 92.4829 40.694 90.4307 38.3803 87.9682C36.2027 85.5056 34.4334 82.4958 33.2084 79.2124C31.9835 75.7922 31.4391 72.2351 31.4391 68.2677C31.4391 64.3002 31.9835 60.6064 33.2084 57.1861C34.4334 53.7659 36.0666 50.7561 38.3803 48.1568C40.5579 45.5574 43.416 43.6421 46.6824 42.1372C49.9488 40.6323 53.6235 39.9482 57.7065 39.9482C60.7007 39.9482 63.4227 40.3586 66.0086 41.1795C68.5945 42.0003 70.9082 43.2316 73.0858 44.8733C75.1273 46.515 76.8966 48.5672 78.2576 50.8929C79.6186 53.3555 80.4352 56.0917 80.8435 59.1015H69.5472C69.1389 58.1438 68.5945 56.9125 67.914 55.8181Z" fill="black"/>
<path d="M429.396 388.948C428.716 386.075 427.899 383.202 427.491 380.329C426.538 374.309 426.538 368.29 427.082 362.27C428.035 353.104 430.349 344.485 435.793 337.097C441.509 329.436 449.267 325.195 458.658 324.374C464.918 323.827 471.043 324.511 476.759 327.11C483.7 330.257 488.6 335.456 492.138 342.022C495.268 347.905 496.902 354.335 497.718 360.902C498.535 368.29 498.399 375.677 497.174 382.928C496.766 384.98 496.221 386.896 495.677 388.948H471.859C473.084 387.169 473.629 385.117 474.037 383.065C475.534 374.857 475.534 366.511 474.309 358.303C473.765 355.019 472.948 351.873 471.043 349C466.824 342.706 458.249 342.57 453.894 348.863C452.261 351.189 451.444 353.788 450.9 356.524C449.131 364.87 449.267 373.352 450.628 381.834C451.036 384.296 451.58 386.759 453.077 388.948H429.396Z" fill="black"/>
<path d="M512.281 388.948C514.322 381.971 516.908 375.13 520.039 368.563C523.713 360.902 527.933 353.514 533.104 346.674C533.24 346.537 533.24 346.537 533.377 346.263H504.795V326.563C505.068 326.563 505.204 326.563 505.476 326.563C523.305 326.563 540.998 326.563 558.827 326.563C558.963 326.563 559.236 326.563 559.372 326.563V343.527C559.236 343.801 558.963 343.938 558.827 344.211C553.111 352.146 548.348 360.765 544.128 369.658C541.134 375.951 538.412 382.381 536.235 388.948H512.281Z" fill="black"/>
<path d="M393.602 388.948C393.602 386.485 393.602 384.023 393.602 381.697C393.602 373.625 393.602 365.554 393.602 357.482V356.251H380.4V339.013C382.033 338.739 383.666 338.602 385.3 338.192C390.335 336.687 394.282 333.951 396.732 329.026C397.004 328.478 397.276 328.068 397.276 327.521C397.412 326.837 397.685 326.563 398.365 326.563C404.218 326.563 410.07 326.563 415.786 326.563H416.739V327.931C416.739 347.905 416.739 367.879 416.739 387.717C416.739 388.127 416.739 388.537 416.875 388.948H393.602Z" fill="black"/>
<path d="M529.974 218.347C530.655 216.295 531.607 214.38 532.832 212.875C534.193 211.37 535.826 210.139 537.732 209.181C539.637 208.36 541.951 207.813 544.537 207.813C546.442 207.813 548.348 208.086 550.117 208.77C551.886 209.318 553.383 210.275 554.744 211.37C556.105 212.464 557.194 213.969 558.011 215.611C558.827 217.253 559.236 219.168 559.236 221.22C559.236 223.409 558.827 225.188 558.147 226.829C557.466 228.334 556.514 229.702 555.425 230.934C554.336 232.165 552.975 233.259 551.614 234.217C550.117 235.175 548.756 236.132 547.259 237.09C545.762 238.048 544.401 239.142 543.04 240.237C541.679 241.331 540.454 242.562 539.365 244.067H559.372V251.592H528.069C528.069 249.129 528.477 246.94 529.157 245.162C529.838 243.383 530.791 241.741 532.016 240.237C533.24 238.732 534.601 237.5 536.371 236.269C538.004 235.038 539.773 233.807 541.543 232.575C542.495 231.891 543.448 231.207 544.537 230.523C545.626 229.839 546.578 229.155 547.395 228.334C548.211 227.513 549.028 226.556 549.572 225.598C550.117 224.64 550.389 223.409 550.389 222.041C550.389 219.989 549.845 218.347 548.62 217.116C547.395 215.885 545.898 215.337 543.992 215.337C542.767 215.337 541.679 215.611 540.726 216.158C539.909 216.705 539.093 217.526 538.684 218.484C538.14 219.442 537.732 220.536 537.596 221.631C537.323 222.862 537.323 223.956 537.323 225.051H529.021C529.021 222.725 529.294 220.399 529.974 218.347Z" stroke="black"/>
<path d="M529.974 162.529C530.655 160.477 531.607 158.562 532.832 157.057C534.193 155.552 535.826 154.32 537.732 153.363C539.637 152.542 541.951 151.995 544.537 151.995C546.442 151.995 548.348 152.268 550.117 152.952C551.886 153.5 553.383 154.457 554.744 155.552C556.105 156.646 557.194 158.151 558.011 159.793C558.827 161.435 559.236 163.35 559.236 165.402C559.236 167.591 558.827 169.369 558.147 171.011C557.466 172.516 556.514 173.884 555.425 175.115C554.336 176.347 552.975 177.441 551.614 178.399C550.117 179.357 548.756 180.314 547.259 181.272C545.762 182.23 544.401 183.324 543.04 184.418C541.679 185.513 540.454 186.744 539.365 188.249H559.372V195.774H528.069C528.069 193.311 528.477 191.122 529.157 189.344C529.838 187.565 530.791 185.923 532.016 184.418C533.24 182.914 534.601 181.682 536.371 180.451C538.004 179.22 539.773 177.988 541.543 176.757C542.495 176.073 543.448 175.389 544.537 174.705C545.626 174.021 546.578 173.337 547.395 172.516C548.211 171.695 549.028 170.738 549.572 169.78C550.117 168.822 550.389 167.591 550.389 166.223C550.389 164.171 549.845 162.529 548.62 161.298C547.395 160.066 545.898 159.519 543.992 159.519C542.767 159.519 541.679 159.793 540.726 160.34C539.909 160.887 539.093 161.708 538.684 162.666C538.14 163.623 537.732 164.718 537.596 165.812C537.323 167.044 537.323 168.138 537.323 169.233H529.021C529.021 166.907 529.294 164.718 529.974 162.529Z" stroke="black"/>
<path d="M529.294 107.942C530.11 105.069 531.199 102.88 532.696 101.102C534.057 99.3233 535.826 98.2288 537.596 97.408C539.501 96.7239 541.543 96.3135 543.584 96.3135C545.762 96.3135 547.803 96.7239 549.709 97.408C551.614 98.092 553.247 99.3233 554.744 101.102C556.241 102.88 557.33 105.069 558.147 107.942C558.963 110.815 559.372 114.235 559.372 118.477C559.372 122.718 558.963 126.411 558.147 129.284C557.33 132.157 556.241 134.483 554.744 136.125C553.247 137.903 551.614 138.998 549.709 139.819C547.803 140.503 545.762 140.913 543.584 140.913C541.406 140.913 539.501 140.503 537.596 139.819C535.69 139.135 534.057 137.903 532.696 136.125C531.335 134.346 530.11 132.157 529.294 129.284C528.477 126.411 528.069 122.854 528.069 118.477C528.069 114.235 528.477 110.815 529.294 107.942ZM536.915 122.854C537.051 124.633 537.187 126.275 537.732 127.916C538.14 129.558 538.821 130.926 539.773 132.021C540.726 133.115 542.087 133.799 543.856 133.799C545.626 133.799 546.987 133.252 547.939 132.021C548.892 130.926 549.572 129.558 549.981 127.916C550.389 126.275 550.661 124.633 550.797 122.854C550.933 121.076 550.933 119.571 550.933 118.477C550.933 117.793 550.933 116.835 550.933 115.877C550.933 114.783 550.797 113.825 550.661 112.594C550.525 111.499 550.253 110.405 550.117 109.31C549.845 108.216 549.436 107.258 548.892 106.437C548.348 105.617 547.667 104.932 546.85 104.385C546.034 103.838 545.081 103.564 543.856 103.564C542.631 103.564 541.679 103.838 540.862 104.385C540.045 104.932 539.365 105.617 538.957 106.437C538.412 107.258 538.004 108.216 537.732 109.31C537.46 110.405 537.187 111.499 537.187 112.594C537.051 113.688 537.051 114.783 536.915 115.877C536.915 116.972 536.915 117.793 536.915 118.477C536.779 119.708 536.779 121.213 536.915 122.854Z" stroke="black"/>
<path d="M529.974 51.1666C530.655 49.1144 531.607 47.1991 532.832 45.6942C534.193 44.1893 535.826 42.958 537.732 42.0004C539.637 41.1795 541.951 40.6323 544.537 40.6323C546.442 40.6323 548.348 40.9059 550.117 41.5899C551.886 42.1372 553.383 43.0948 554.744 44.1893C556.105 45.2838 557.194 46.7887 558.011 48.4304C558.827 50.0721 559.236 51.9874 559.236 54.0395C559.236 56.2285 558.827 58.007 558.147 59.6487C557.466 61.1536 556.514 62.5217 555.425 63.753C554.336 64.9843 552.975 66.0787 551.614 67.0364C550.117 67.9941 548.756 68.9517 547.259 69.9094C545.762 70.867 544.401 71.9615 543.04 73.056C541.679 74.1505 540.454 75.3817 539.365 76.8866H559.372V84.4111H528.069C528.069 81.9486 528.477 79.7596 529.157 77.9811C529.838 76.2026 530.791 74.5609 532.016 73.056C533.24 71.5511 534.601 70.3198 536.371 69.0885C538.004 67.8572 539.773 66.626 541.543 65.3947C542.495 64.7106 543.448 64.0266 544.537 63.3425C545.626 62.6585 546.578 61.9745 547.395 61.1536C548.211 60.3328 549.028 59.3751 549.572 58.4174C550.117 57.4598 550.389 56.2285 550.389 54.8604C550.389 52.8083 549.845 51.1666 548.62 49.9353C547.395 48.704 545.898 48.1568 543.992 48.1568C542.767 48.1568 541.679 48.4304 540.726 48.9776C539.909 49.5248 539.093 50.3457 538.684 51.3034C538.14 52.261 537.732 53.3555 537.596 54.45C537.323 55.6812 537.323 56.7757 537.323 57.8702H529.021C529.021 55.5444 529.294 53.2187 529.974 51.1666Z" stroke="black"/>
</g>
<defs>
<clipPath id="clip0_20_47">
<rect width="587" height="391" fill="white"/>
</clipPath>
</defs>
</svg>
